<svg version="1.1" xmlns="http://www.w3.org/2000/svg" xmlns:xlink="http://www.w3.org/1999/xlink" width="15" height="19"><defs/><g><path fill="rgb(255,255,255)" stroke="none" paint-order="stroke fill markers" fill-rule="evenodd" d=" M 13.219612121582031 15.013286709785461 C 13.219612121582031 15.013286709785461 10.154884338378906 6.7464717626571655 10.154884338378906 6.7464717626571655 C 10.154884338378906 6.7464717626571655 10.154884338378906 4.313941240310669 10.154884338378906 4.313941240310669 C 10.733020782470703 4.114464521408081 11.149223327636719 3.5685659646987915 11.149223327636719 2.928765892982483 C 11.149223327636719 2.928765892982483 11.149223327636719 2.5319628715515137 11.149223327636719 2.5319628715515137 C 11.149223327636719 1.7230991125106812 10.485637664794922 1.0655837059020996 9.669921875 1.0655837059020996 C 9.669921875 1.0655837059020996 5.295494079589844 1.0655837059020996 5.295494079589844 1.0655837059020996 C 4.479778289794922 1.0655837059020996 3.816173553466797 1.7230991125106812 3.816173553466797 2.5319628715515137 C 3.816173553466797 2.5319628715515137 3.816173553466797 2.928765892982483 3.816173553466797 2.928765892982483 C 3.816173553466797 3.568156361579895 4.231269836425781 4.113338112831116 4.8108367919921875 4.3135316371917725 C 4.8108367919921875 4.3135316371917725 4.8108367919921875 6.7464717626571655 4.8108367919921875 6.7464717626571655 C 4.8108367919921875 6.7464717626571655 1.7519264221191406 14.99710738658905 1.7519264221191406 14.99710738658905 C 1.5655975341796875 15.449411630630493 1.6188697814941406 15.962234735488892 1.8941383361816406 16.369380235671997 C 2.169597625732422 16.77498972415924 2.6283912658691406 17.01675796508789 3.1218605041503906 17.01675796508789 C 3.1218605041503906 17.01675796508789 11.843727111816406 17.01675796508789 11.843727111816406 17.01675796508789 C 12.337196350097656 17.01675796508789 12.795989990234375 16.77498972415924 13.071277618408203 16.368561029434204 C 13.346546173095703 15.962234735488892 13.399818420410156 15.449923634529114 13.219612121582031 15.013286709785461 Z M 5.109432220458984 13.139147639274597 C 5.109432220458984 12.861846327781677 5.334918975830078 12.639431834220886 5.612400054931641 12.639431834220886 C 5.8920745849609375 12.639431834220886 6.11767578125 12.861846327781677 6.11767578125 13.139147639274597 C 6.11767578125 13.415834546089172 5.8920745849609375 13.638761043548584 5.612400054931641 13.638761043548584 C 5.334918975830078 13.638761043548584 5.109432220458984 13.415834546089172 5.109432220458984 13.139147639274597 Z M 8.35898208618164 13.574965357780457 C 8.840778350830078 13.574965357780457 9.230335235595703 13.962552309036255 9.230335235595703 14.437384724617004 C 9.230335235595703 14.91436755657196 8.840778350830078 15.302159309387207 8.35898208618164 15.302159309387207 C 7.876708984375 15.302159309387207 7.488048553466797 14.91436755657196 7.488048553466797 14.437384724617004 C 7.488048553466797 13.962552309036255 7.876708984375 13.574965357780457 8.35898208618164 13.574965357780457 Z M 7.617328643798828 11.682291746139526 C 7.617328643798828 11.34047794342041 7.898777008056641 11.06020700931549 8.246086120605469 11.06020700931549 C 8.591506958007812 11.06020700931549 8.872783660888672 11.34047794342041 8.872783660888672 11.682291746139526 C 8.872783660888672 12.025436758995056 8.591506958007812 12.30458128452301 8.246086120605469 12.30458128452301 C 7.898777008056641 12.30458128452301 7.617328643798828 12.025436758995056 7.617328643798828 11.682291746139526 Z M 5.789268493652344 6.918709874153137 C 5.789268493652344 6.918709874153137 5.789268493652344 3.9100725650787354 5.789268493652344 3.9100725650787354 C 5.789268493652344 3.9100725650787354 5.784843444824219 3.4250000715255737 5.784843444824219 3.4250000715255737 C 5.784843444824219 3.4250000715255737 5.295494079589844 3.4250000715255737 5.295494079589844 3.4250000715255737 C 5.0194244384765625 3.4250000715255737 4.794624328613281 3.2023807764053345 4.794624328613281 2.928765892982483 C 4.794624328613281 2.928765892982483 4.794624328613281 2.5319628715515137 4.794624328613281 2.5319628715515137 C 4.794624328613281 2.2579383850097656 5.0194244384765625 2.0355238914489746 5.295494079589844 2.0355238914489746 C 5.295494079589844 2.0355238914489746 9.669921875 2.0355238914489746 9.669921875 2.0355238914489746 C 9.945991516113281 2.0355238914489746 10.170658111572266 2.2579383850097656 10.170658111572266 2.5319628715515137 C 10.170658111572266 2.5319628715515137 10.170658111572266 2.928765892982483 10.170658111572266 2.928765892982483 C 10.170658111572266 3.2023807764053345 9.945991516113281 3.4250000715255737 9.665496826171875 3.4250000715255737 C 9.665496826171875 3.4250000715255737 9.176300048828125 3.4250000715255737 9.176300048828125 3.4250000715255737 C 9.176300048828125 3.4250000715255737 9.176300048828125 6.918709874153137 9.176300048828125 6.918709874153137 C 9.176300048828125 6.918709874153137 10.034587860107422 9.233479499816895 10.034587860107422 9.233479499816895 C 10.023086547851562 9.244333982467651 10.012977600097656 9.251604437828064 10.001304626464844 9.263380527496338 C 9.3623046875 9.92140793800354 4.692924499511719 9.997491717338562 4.692924499511719 9.997491717338562 C 4.692924499511719 9.997491717338562 4.647834777832031 9.997491717338562 4.647834777832031 9.997491717338562 C 4.647834777832031 9.997491717338562 5.789268493652344 6.918709874153137 5.789268493652344 6.918709874153137 Z M 7.142475128173828 8.787012100219727 C 7.517402648925781 8.787012100219727 7.822940826416016 8.483803391456604 7.822940826416016 8.110654950141907 C 7.822940826416016 7.739144921302795 7.517402648925781 7.435321807861328 7.142475128173828 7.435321807861328 C 6.765354156494141 7.435321807861328 6.460254669189453 7.739144921302795 6.460254669189453 8.110654950141907 C 6.460254669189453 8.483803391456604 6.765354156494141 8.787012100219727 7.142475128173828 8.787012100219727 Z"/></g></svg>