<svg version="1.1" xmlns="http://www.w3.org/2000/svg" xmlns:xlink="http://www.w3.org/1999/xlink" width="19" height="19"><defs/><g><path fill="rgb(255,255,255)" stroke="none" paint-order="stroke fill markers" fill-rule="evenodd" d=" M 16.61666488647461 5.148573875427246 C 16.61666488647461 5.148573875427246 10.936351776123047 5.148573875427246 10.936351776123047 5.148573875427246 C 10.936351776123047 5.148573875427246 13.177009582519531 2.466185450553894 13.177009582519531 2.466185450553894 C 13.212867736816406 2.4726366996765137 13.243709564208984 2.4862560033798218 13.280864715576172 2.4862560033798218 C 13.649688720703125 2.4862560033798218 13.948036193847656 2.18878173828125 13.948036193847656 1.8205485343933105 C 13.948036193847656 1.4544657468795776 13.649688720703125 1.1549434661865234 13.280864715576172 1.1549434661865234 C 12.913928985595703 1.1549434661865234 12.613712310791016 1.4544657468795776 12.613712310791016 1.8205485343933105 C 12.613712310791016 1.9010355472564697 12.633853912353516 1.9751737117767334 12.659622192382812 2.0461374521255493 C 12.659622192382812 2.0461374521255493 10.067802429199219 5.148573875427246 10.067802429199219 5.148573875427246 C 10.067802429199219 5.148573875427246 9.823585510253906 5.148573875427246 9.823585510253906 5.148573875427246 C 9.823585510253906 5.148573875427246 7.2329864501953125 2.0461374521255493 7.2329864501953125 2.0461374521255493 C 7.258125305175781 1.9751737117767334 7.277656555175781 1.9010355472564697 7.277656555175781 1.8205485343933105 C 7.277656555175781 1.4544657468795776 6.979328155517578 1.1549434661865234 6.610504150390625 1.1549434661865234 C 6.242919921875 1.1549434661865234 5.9433135986328125 1.4544657468795776 5.9433135986328125 1.8205485343933105 C 5.9433135986328125 2.18878173828125 6.242919921875 2.4862560033798218 6.610504150390625 2.4862560033798218 C 6.647621154785156 2.4862560033798218 6.679740905761719 2.4726366996765137 6.7143402099609375 2.466185450553894 C 6.7143402099609375 2.466185450553894 8.955646514892578 5.148573875427246 8.955646514892578 5.148573875427246 C 8.955646514892578 5.148573875427246 3.2752952575683594 5.148573875427246 3.2752952575683594 5.148573875427246 C 2.5389060974121094 5.148573875427246 1.941619873046875 5.745160818099976 1.941619873046875 6.479169607162476 C 1.941619873046875 6.479169607162476 1.941619873046875 15.79774296283722 1.941619873046875 15.79774296283722 C 1.941619873046875 16.532673358917236 2.5389060974121094 17.128543496131897 3.2752952575683594 17.128543496131897 C 3.2752952575683594 17.128543496131897 16.61666488647461 17.128543496131897 16.61666488647461 17.128543496131897 C 17.353092193603516 17.128543496131897 17.95037841796875 16.532673358917236 17.95037841796875 15.79774296283722 C 17.95037841796875 15.79774296283722 17.95037841796875 6.479169607162476 17.95037841796875 6.479169607162476 C 17.95037841796875 5.745160818099976 17.353092193603516 5.148573875427246 16.61666488647461 5.148573875427246 Z M 13.948036193847656 14.466430425643921 C 13.948036193847656 15.201360821723938 13.351360321044922 15.79774296283722 12.613712310791016 15.79774296283722 C 12.613712310791016 15.79774296283722 4.609657287597656 15.79774296283722 4.609657287597656 15.79774296283722 C 3.87322998046875 15.79774296283722 3.2752952575683594 15.201360821723938 3.2752952575683594 14.466430425643921 C 3.2752952575683594 14.466430425643921 3.2752952575683594 7.810789346694946 3.2752952575683594 7.810789346694946 C 3.2752952575683594 7.075346946716309 3.87322998046875 6.479169607162476 4.609657287597656 6.479169607162476 C 4.609657287597656 6.479169607162476 12.613712310791016 6.479169607162476 12.613712310791016 6.479169607162476 C 13.351360321044922 6.479169607162476 13.948036193847656 7.075346946716309 13.948036193847656 7.810789346694946 C 13.948036193847656 7.810789346694946 13.948036193847656 14.466430425643921 13.948036193847656 14.466430425643921 Z M 15.91363525390625 8.517866730690002 C 15.387474060058594 8.517866730690002 14.960742950439453 8.091572284698486 14.960742950439453 7.567075490951538 C 14.960742950439453 7.042066693305969 15.387474060058594 6.616796255111694 15.91363525390625 6.616796255111694 C 16.439205169677734 6.616796255111694 16.865917205810547 7.042066693305969 16.865917205810547 7.567075490951538 C 16.865917205810547 8.091572284698486 16.439205169677734 8.517866730690002 15.91363525390625 8.517866730690002 Z"/></g></svg>